solid foot
facet normal 0.0 0.0 -1.0
  outer loop
    vertex 30.0 30.0 0.0
    vertex 0.0 0.0 0.0
    vertex 0.0 30.0 0.0
  endloop
endfacet
facet normal 0.0 0.0 -1.0
  outer loop
    vertex 0.0 0.0 0.0
    vertex 30.0 30.0 0.0
    vertex 30.0 0.0 0.0
  endloop
endfacet
facet normal -0.0 -0.0 1.0
  outer loop
    vertex 0.0 0.0 60.0
    vertex 2.442964258242116 11.635352413667222 60.0
    vertex 0.0 30.0 60.0
  endloop
endfacet
facet normal -0.0 -0.0 1.0
  outer loop
    vertex 2.442964258242116 11.635352413667222 60.0
    vertex 0.0 0.0 60.0
    vertex 3.741669750802303 8.499999999999996 60.0
  endloop
endfacet
facet normal -0.0 -0.0 1.0
  outer loop
    vertex 3.741669750802303 8.499999999999996 60.0
    vertex 0.0 0.0 60.0
    vertex 5.80761184457489 5.807611844574878 60.0
  endloop
endfacet
facet normal -0.0 -0.0 1.0
  outer loop
    vertex 5.80761184457489 5.807611844574878 60.0
    vertex 0.0 0.0 60.0
    vertex 8.500000000000004 3.741669750802297 60.0
  endloop
endfacet
facet normal -0.0 -0.0 1.0
  outer loop
    vertex 8.500000000000004 3.741669750802297 60.0
    vertex 0.0 0.0 60.0
    vertex 11.635352413667237 2.442964258242112 60.0
  endloop
endfacet
facet normal -0.0 -0.0 1.0
  outer loop
    vertex 11.635352413667237 2.442964258242112 60.0
    vertex 0.0 0.0 60.0
    vertex 30.0 0.0 60.0
  endloop
endfacet
facet normal -0.0 -0.0 1.0
  outer loop
    vertex 0.0 30.0 60.0
    vertex 2.442964258242116 11.635352413667222 60.0
    vertex 2.0000000000000018 14.999999999999998 60.0
  endloop
endfacet
facet normal -0.0 -0.0 1.0
  outer loop
    vertex 11.635352413667237 2.442964258242112 60.0
    vertex 30.0 0.0 60.0
    vertex 15.000000000000004 2.0000000000000018 60.0
  endloop
endfacet
facet normal -0.0 -0.0 1.0
  outer loop
    vertex 15.000000000000004 2.0000000000000018 60.0
    vertex 30.0 0.0 60.0
    vertex 18.364647586332776 2.4429642582421147 60.0
  endloop
endfacet
facet normal -0.0 -0.0 1.0
  outer loop
    vertex 18.364647586332776 2.4429642582421147 60.0
    vertex 30.0 0.0 60.0
    vertex 21.500000000000007 3.7416697508023016 60.0
  endloop
endfacet
facet normal -0.0 -0.0 1.0
  outer loop
    vertex 21.500000000000007 3.7416697508023016 60.0
    vertex 30.0 0.0 60.0
    vertex 24.192388155425117 5.807611844574884 60.0
  endloop
endfacet
facet normal -0.0 -0.0 1.0
  outer loop
    vertex 24.192388155425117 5.807611844574884 60.0
    vertex 30.0 0.0 60.0
    vertex 26.258330249197705 8.500000000000004 60.0
  endloop
endfacet
facet normal -0.0 -0.0 1.0
  outer loop
    vertex 26.258330249197705 8.500000000000004 60.0
    vertex 30.0 0.0 60.0
    vertex 27.557035741757886 11.635352413667233 60.0
  endloop
endfacet
facet normal -0.0 -0.0 1.0
  outer loop
    vertex 27.557035741757886 11.635352413667233 60.0
    vertex 30.0 0.0 60.0
    vertex 28.0 15.0 60.0
  endloop
endfacet
facet normal -0.0 -0.0 1.0
  outer loop
    vertex 0.0 30.0 60.0
    vertex 11.635352413667222 27.557035741757886 60.0
    vertex 30.0 30.0 60.0
  endloop
endfacet
facet normal -0.0 -0.0 1.0
  outer loop
    vertex 11.635352413667222 27.557035741757886 60.0
    vertex 0.0 30.0 60.0
    vertex 8.499999999999996 26.258330249197698 60.0
  endloop
endfacet
facet normal -0.0 -0.0 1.0
  outer loop
    vertex 8.499999999999996 26.258330249197698 60.0
    vertex 0.0 30.0 60.0
    vertex 5.807611844574881 24.192388155425117 60.0
  endloop
endfacet
facet normal -0.0 -0.0 1.0
  outer loop
    vertex 5.807611844574881 24.192388155425117 60.0
    vertex 0.0 30.0 60.0
    vertex 3.7416697508022945 21.49999999999999 60.0
  endloop
endfacet
facet normal -0.0 -0.0 1.0
  outer loop
    vertex 3.7416697508022945 21.49999999999999 60.0
    vertex 0.0 30.0 60.0
    vertex 2.442964258242112 18.36464758633276 60.0
  endloop
endfacet
facet normal -0.0 -0.0 1.0
  outer loop
    vertex 2.442964258242112 18.36464758633276 60.0
    vertex 0.0 30.0 60.0
    vertex 2.0000000000000018 14.999999999999998 60.0
  endloop
endfacet
facet normal -0.0 -0.0 1.0
  outer loop
    vertex 30.0 30.0 60.0
    vertex 11.635352413667222 27.557035741757886 60.0
    vertex 15.0 28.0 60.0
  endloop
endfacet
facet normal -0.0 -0.0 1.0
  outer loop
    vertex 30.0 30.0 60.0
    vertex 15.0 28.0 60.0
    vertex 18.36464758633277 27.557035741757886 60.0
  endloop
endfacet
facet normal -0.0 -0.0 1.0
  outer loop
    vertex 30.0 30.0 60.0
    vertex 18.36464758633277 27.557035741757886 60.0
    vertex 21.5 26.258330249197705 60.0
  endloop
endfacet
facet normal -0.0 -0.0 1.0
  outer loop
    vertex 30.0 30.0 60.0
    vertex 21.5 26.258330249197705 60.0
    vertex 24.192388155425117 24.192388155425117 60.0
  endloop
endfacet
facet normal -0.0 -0.0 1.0
  outer loop
    vertex 30.0 30.0 60.0
    vertex 24.192388155425117 24.192388155425117 60.0
    vertex 26.258330249197698 21.5 60.0
  endloop
endfacet
facet normal -0.0 -0.0 1.0
  outer loop
    vertex 30.0 30.0 60.0
    vertex 26.258330249197698 21.5 60.0
    vertex 27.557035741757886 18.364647586332776 60.0
  endloop
endfacet
facet normal -0.0 -0.0 1.0
  outer loop
    vertex 30.0 30.0 60.0
    vertex 27.557035741757886 18.364647586332776 60.0
    vertex 28.0 15.0 60.0
  endloop
endfacet
facet normal -0.0 -0.0 1.0
  outer loop
    vertex 30.0 30.0 60.0
    vertex 28.0 15.0 60.0
    vertex 30.0 0.0 60.0
  endloop
endfacet
facet normal -0.0 1.0 -0.0
  outer loop
    vertex 0.0 30.0 60.0
    vertex 30.0 30.0 30.0
    vertex 0.0 30.0 30.0
  endloop
endfacet
facet normal -0.0 1.0 -0.0
  outer loop
    vertex 30.0 30.0 30.0
    vertex 0.0 30.0 60.0
    vertex 30.0 30.0 60.0
  endloop
endfacet
facet normal 1.0 -0.0 -0.0
  outer loop
    vertex 30.0 30.0 30.0
    vertex 30.0 0.0 60.0
    vertex 30.0 0.0 30.0
  endloop
endfacet
facet normal 1.0 -0.0 -0.0
  outer loop
    vertex 30.0 0.0 60.0
    vertex 30.0 30.0 30.0
    vertex 30.0 30.0 60.0
  endloop
endfacet
facet normal 0.0 -1.0 0.0
  outer loop
    vertex 60.0 0.0 30.0
    vertex 30.0 0.0 0.0
    vertex 60.0 0.0 0.0
  endloop
endfacet
facet normal 0.0 -1.0 0.0
  outer loop
    vertex 30.0 0.0 0.0
    vertex 60.0 0.0 30.0
    vertex 28.0 0.0 5.000000000000001
  endloop
endfacet
facet normal 0.0 -1.0 0.0
  outer loop
    vertex 30.0 0.0 0.0
    vertex 28.0 0.0 5.000000000000001
    vertex 0.0 0.0 0.0
  endloop
endfacet
facet normal 0.0 -1.0 0.0
  outer loop
    vertex 28.0 0.0 5.000000000000001
    vertex 60.0 0.0 30.0
    vertex 28.0 0.0 15.0
  endloop
endfacet
facet normal 0.0 -1.0 0.0
  outer loop
    vertex 28.0 0.0 15.0
    vertex 60.0 0.0 30.0
    vertex 3.0 0.0 15.0
  endloop
endfacet
facet normal 0.0 -1.0 0.0
  outer loop
    vertex 0.0 0.0 0.0
    vertex 3.0 0.0 5.000000000000001
    vertex 0.0 0.0 60.0
  endloop
endfacet
facet normal 0.0 -1.0 0.0
  outer loop
    vertex 3.0 0.0 5.000000000000001
    vertex 0.0 0.0 0.0
    vertex 28.0 0.0 5.000000000000001
  endloop
endfacet
facet normal 0.0 -1.0 0.0
  outer loop
    vertex 0.0 0.0 60.0
    vertex 3.0 0.0 5.000000000000001
    vertex 3.0 0.0 15.0
  endloop
endfacet
facet normal 0.0 -1.0 0.0
  outer loop
    vertex 0.0 0.0 60.0
    vertex 3.0 0.0 15.0
    vertex 30.0 0.0 30.0
  endloop
endfacet
facet normal 0.0 -1.0 0.0
  outer loop
    vertex 30.0 0.0 30.0
    vertex 3.0 0.0 15.0
    vertex 60.0 0.0 30.0
  endloop
endfacet
facet normal 0.0 -1.0 0.0
  outer loop
    vertex 0.0 0.0 60.0
    vertex 30.0 0.0 30.0
    vertex 30.0 0.0 60.0
  endloop
endfacet
facet normal -1.0 0.0 0.0
  outer loop
    vertex 0.0 0.0 60.0
    vertex 0.0 5.0 15.0
    vertex 0.0 0.0 0.0
  endloop
endfacet
facet normal -1.0 0.0 0.0
  outer loop
    vertex 0.0 5.0 15.0
    vertex 0.0 0.0 60.0
    vertex 0.0 30.0 60.0
  endloop
endfacet
facet normal -1.0 0.0 0.0
  outer loop
    vertex 0.0 5.0 15.0
    vertex 0.0 30.0 60.0
    vertex 0.0 25.0 15.0
  endloop
endfacet
facet normal -1.0 0.0 0.0
  outer loop
    vertex 0.0 25.0 15.0
    vertex 0.0 30.0 60.0
    vertex 0.0 25.0 5.0
  endloop
endfacet
facet normal -1.0 0.0 0.0
  outer loop
    vertex 0.0 0.0 0.0
    vertex 0.0 5.0 5.0
    vertex 0.0 30.0 0.0
  endloop
endfacet
facet normal -1.0 0.0 0.0
  outer loop
    vertex 0.0 5.0 5.0
    vertex 0.0 0.0 0.0
    vertex 0.0 5.0 15.0
  endloop
endfacet
facet normal -1.0 0.0 0.0
  outer loop
    vertex 0.0 30.0 0.0
    vertex 0.0 5.0 5.0
    vertex 0.0 25.0 5.0
  endloop
endfacet
facet normal -1.0 0.0 0.0
  outer loop
    vertex 0.0 30.0 0.0
    vertex 0.0 25.0 5.0
    vertex 0.0 30.0 60.0
  endloop
endfacet
facet normal -1.0 0.0 0.0
  outer loop
    vertex 0.0 30.0 0.0
    vertex 0.0 30.0 60.0
    vertex 0.0 30.0 30.0
  endloop
endfacet
facet normal -1.0 0.0 0.0
  outer loop
    vertex 0.0 30.0 0.0
    vertex 0.0 30.0 30.0
    vertex 0.0 60.0 30.0
  endloop
endfacet
facet normal -1.0 0.0 0.0
  outer loop
    vertex 0.0 30.0 0.0
    vertex 0.0 60.0 30.0
    vertex 0.0 60.0 0.0
  endloop
endfacet
facet normal 0.0 0.0 -1.0
  outer loop
    vertex 60.0 30.0 0.0
    vertex 30.0 0.0 0.0
    vertex 30.0 30.0 0.0
  endloop
endfacet
facet normal 0.0 0.0 -1.0
  outer loop
    vertex 30.0 0.0 0.0
    vertex 60.0 30.0 0.0
    vertex 60.0 0.0 0.0
  endloop
endfacet
facet normal 0.0 0.0 -1.0
  outer loop
    vertex 30.0 60.0 0.0
    vertex 0.0 30.0 0.0
    vertex 0.0 60.0 0.0
  endloop
endfacet
facet normal 0.0 0.0 -1.0
  outer loop
    vertex 0.0 30.0 0.0
    vertex 30.0 60.0 0.0
    vertex 30.0 30.0 0.0
  endloop
endfacet
facet normal -0.0 -0.0 1.0
  outer loop
    vertex 60.0 0.0 30.0
    vertex 30.0 30.0 30.0
    vertex 30.0 0.0 30.0
  endloop
endfacet
facet normal -0.0 -0.0 1.0
  outer loop
    vertex 30.0 30.0 30.0
    vertex 60.0 0.0 30.0
    vertex 60.0 30.0 30.0
  endloop
endfacet
facet normal -0.0 1.0 -0.0
  outer loop
    vertex 30.0 30.0 30.0
    vertex 60.0 30.0 0.0
    vertex 30.0 30.0 0.0
  endloop
endfacet
facet normal -0.0 1.0 -0.0
  outer loop
    vertex 60.0 30.0 0.0
    vertex 30.0 30.0 30.0
    vertex 60.0 30.0 30.0
  endloop
endfacet
facet normal 1.0 0.0 0.0
  outer loop
    vertex 60.0 0.0 0.0
    vertex 60.0 6.789630476542918 12.80003811662857
    vertex 60.0 0.0 30.0
  endloop
endfacet
facet normal 1.0 0.0 0.0
  outer loop
    vertex 60.0 6.789630476542918 12.80003811662857
    vertex 60.0 0.0 0.0
    vertex 60.0 7.638784067832271 10.749999999999996
  endloop
endfacet
facet normal 1.0 0.0 0.0
  outer loop
    vertex 60.0 7.638784067832271 10.749999999999996
    vertex 60.0 0.0 0.0
    vertex 60.0 8.989592359914344 8.989592359914345
  endloop
endfacet
facet normal 1.0 0.0 0.0
  outer loop
    vertex 60.0 8.989592359914344 8.989592359914345
    vertex 60.0 0.0 0.0
    vertex 60.0 10.75 7.638784067832271
  endloop
endfacet
facet normal 1.0 0.0 0.0
  outer loop
    vertex 60.0 10.75 7.638784067832271
    vertex 60.0 0.0 0.0
    vertex 60.0 12.800038116628574 6.7896304765429205
  endloop
endfacet
facet normal 1.0 0.0 0.0
  outer loop
    vertex 60.0 12.800038116628574 6.7896304765429205
    vertex 60.0 0.0 0.0
    vertex 60.0 30.0 0.0
  endloop
endfacet
facet normal 1.0 0.0 0.0
  outer loop
    vertex 60.0 0.0 30.0
    vertex 60.0 6.789630476542918 12.80003811662857
    vertex 60.0 6.499999999999998 15.0
  endloop
endfacet
facet normal 1.0 0.0 0.0
  outer loop
    vertex 60.0 12.800038116628574 6.7896304765429205
    vertex 60.0 30.0 0.0
    vertex 60.0 14.999999999999998 6.500000000000001
  endloop
endfacet
facet normal 1.0 0.0 0.0
  outer loop
    vertex 60.0 14.999999999999998 6.500000000000001
    vertex 60.0 30.0 0.0
    vertex 60.0 17.199961883371426 6.7896304765429205
  endloop
endfacet
facet normal 1.0 0.0 0.0
  outer loop
    vertex 60.0 17.199961883371426 6.7896304765429205
    vertex 60.0 30.0 0.0
    vertex 60.0 19.25 7.638784067832272
  endloop
endfacet
facet normal 1.0 0.0 0.0
  outer loop
    vertex 60.0 19.25 7.638784067832272
    vertex 60.0 30.0 0.0
    vertex 60.0 21.010407640085653 8.989592359914347
  endloop
endfacet
facet normal 1.0 0.0 0.0
  outer loop
    vertex 60.0 21.010407640085653 8.989592359914347
    vertex 60.0 30.0 0.0
    vertex 60.0 22.361215932167724 10.750000000000002
  endloop
endfacet
facet normal 1.0 0.0 0.0
  outer loop
    vertex 60.0 22.361215932167724 10.750000000000002
    vertex 60.0 30.0 0.0
    vertex 60.0 23.21036952345708 12.800038116628574
  endloop
endfacet
facet normal 1.0 0.0 0.0
  outer loop
    vertex 60.0 23.21036952345708 12.800038116628574
    vertex 60.0 30.0 0.0
    vertex 60.0 23.499999999999996 15.0
  endloop
endfacet
facet normal 1.0 0.0 0.0
  outer loop
    vertex 60.0 0.0 30.0
    vertex 60.0 12.800038116628565 23.21036952345708
    vertex 60.0 30.0 30.0
  endloop
endfacet
facet normal 1.0 0.0 0.0
  outer loop
    vertex 60.0 12.800038116628565 23.21036952345708
    vertex 60.0 0.0 30.0
    vertex 60.0 10.749999999999995 22.361215932167724
  endloop
endfacet
facet normal 1.0 0.0 0.0
  outer loop
    vertex 60.0 10.749999999999995 22.361215932167724
    vertex 60.0 0.0 30.0
    vertex 60.0 8.98959235991434 21.010407640085653
  endloop
endfacet
facet normal 1.0 0.0 0.0
  outer loop
    vertex 60.0 8.98959235991434 21.010407640085653
    vertex 60.0 0.0 30.0
    vertex 60.0 7.638784067832268 19.25
  endloop
endfacet
facet normal 1.0 0.0 0.0
  outer loop
    vertex 60.0 7.638784067832268 19.25
    vertex 60.0 0.0 30.0
    vertex 60.0 6.789630476542916 17.199961883371426
  endloop
endfacet
facet normal 1.0 0.0 0.0
  outer loop
    vertex 60.0 6.789630476542916 17.199961883371426
    vertex 60.0 0.0 30.0
    vertex 60.0 6.499999999999998 15.0
  endloop
endfacet
facet normal 1.0 0.0 0.0
  outer loop
    vertex 60.0 30.0 30.0
    vertex 60.0 12.800038116628565 23.21036952345708
    vertex 60.0 14.999999999999995 23.500000000000004
  endloop
endfacet
facet normal 1.0 0.0 0.0
  outer loop
    vertex 60.0 30.0 30.0
    vertex 60.0 14.999999999999995 23.500000000000004
    vertex 60.0 17.199961883371422 23.210369523457082
  endloop
endfacet
facet normal 1.0 0.0 0.0
  outer loop
    vertex 60.0 30.0 30.0
    vertex 60.0 17.199961883371422 23.210369523457082
    vertex 60.0 19.249999999999993 22.36121593216773
  endloop
endfacet
facet normal 1.0 0.0 0.0
  outer loop
    vertex 60.0 30.0 30.0
    vertex 60.0 19.249999999999993 22.36121593216773
    vertex 60.0 21.010407640085653 21.010407640085656
  endloop
endfacet
facet normal 1.0 0.0 0.0
  outer loop
    vertex 60.0 30.0 30.0
    vertex 60.0 21.010407640085653 21.010407640085656
    vertex 60.0 22.361215932167724 19.250000000000004
  endloop
endfacet
facet normal 1.0 0.0 0.0
  outer loop
    vertex 60.0 30.0 30.0
    vertex 60.0 22.361215932167724 19.250000000000004
    vertex 60.0 23.210369523457075 17.199961883371433
  endloop
endfacet
facet normal 1.0 0.0 0.0
  outer loop
    vertex 60.0 30.0 30.0
    vertex 60.0 23.210369523457075 17.199961883371433
    vertex 60.0 23.499999999999996 15.0
  endloop
endfacet
facet normal 1.0 0.0 0.0
  outer loop
    vertex 60.0 30.0 30.0
    vertex 60.0 23.499999999999996 15.0
    vertex 60.0 30.0 0.0
  endloop
endfacet
facet normal -0.0 -0.0 1.0
  outer loop
    vertex 30.0 30.0 30.0
    vertex 0.0 60.0 30.0
    vertex 0.0 30.0 30.0
  endloop
endfacet
facet normal -0.0 -0.0 1.0
  outer loop
    vertex 0.0 60.0 30.0
    vertex 30.0 30.0 30.0
    vertex 30.0 60.0 30.0
  endloop
endfacet
facet normal -0.0 1.0 0.0
  outer loop
    vertex 0.0 60.0 0.0
    vertex 11.196779227677675 60.0 7.398321780226687
    vertex 30.0 60.0 0.0
  endloop
endfacet
facet normal -0.0 1.0 0.0
  outer loop
    vertex 11.196779227677675 60.0 7.398321780226687
    vertex 0.0 60.0 0.0
    vertex 9.35891173491645 60.0 8.641688652988384
  endloop
endfacet
facet normal -0.0 1.0 0.0
  outer loop
    vertex 9.35891173491645 60.0 8.641688652988384
    vertex 0.0 60.0 0.0
    vertex 7.9054750850815365 60.0 10.318363936442607
  endloop
endfacet
facet normal -0.0 1.0 0.0
  outer loop
    vertex 7.9054750850815365 60.0 10.318363936442607
    vertex 0.0 60.0 0.0
    vertex 6.935518583941551 60.0 12.314084980858862
  endloop
endfacet
facet normal -0.0 1.0 0.0
  outer loop
    vertex 6.935518583941551 60.0 12.314084980858862
    vertex 0.0 60.0 0.0
    vertex 0.0 60.0 30.0
  endloop
endfacet
facet normal -0.0 1.0 0.0
  outer loop
    vertex 30.0 60.0 0.0
    vertex 11.196779227677675 60.0 7.398321780226687
    vertex 13.293829930953168 60.0 6.672996715775312
  endloop
endfacet
facet normal -0.0 1.0 0.0
  outer loop
    vertex 30.0 60.0 0.0
    vertex 13.293829930953168 60.0 6.672996715775312
    vertex 15.507153304854851 60.0 6.515143164120282
  endloop
endfacet
facet normal -0.0 1.0 0.0
  outer loop
    vertex 6.935518583941551 60.0 12.314084980858862
    vertex 0.0 60.0 30.0
    vertex 6.515143164120282 60.0 14.49284669514515
  endloop
endfacet
facet normal -0.0 1.0 0.0
  outer loop
    vertex 6.515143164120282 60.0 14.49284669514515
    vertex 0.0 60.0 30.0
    vertex 6.672996715775314 60.0 16.706170069046834
  endloop
endfacet
facet normal -0.0 1.0 0.0
  outer loop
    vertex 6.672996715775314 60.0 16.706170069046834
    vertex 0.0 60.0 30.0
    vertex 7.398321780226686 60.0 18.803220772322327
  endloop
endfacet
facet normal -0.0 1.0 0.0
  outer loop
    vertex 7.398321780226686 60.0 18.803220772322327
    vertex 0.0 60.0 30.0
    vertex 8.641688652988384 60.0 20.64108826508355
  endloop
endfacet
facet normal -0.0 1.0 0.0
  outer loop
    vertex 8.641688652988384 60.0 20.64108826508355
    vertex 0.0 60.0 30.0
    vertex 10.318363936442612 60.0 22.09452491491847
  endloop
endfacet
facet normal -0.0 1.0 0.0
  outer loop
    vertex 10.318363936442612 60.0 22.09452491491847
    vertex 0.0 60.0 30.0
    vertex 12.314084980858867 60.0 23.06448141605845
  endloop
endfacet
facet normal -0.0 1.0 0.0
  outer loop
    vertex 12.314084980858867 60.0 23.06448141605845
    vertex 0.0 60.0 30.0
    vertex 14.49284669514515 60.0 23.48485683587972
  endloop
endfacet
facet normal -0.0 1.0 0.0
  outer loop
    vertex 30.0 60.0 0.0
    vertex 22.601678219773312 60.0 11.196779227677673
    vertex 30.0 60.0 30.0
  endloop
endfacet
facet normal -0.0 1.0 0.0
  outer loop
    vertex 22.601678219773312 60.0 11.196779227677673
    vertex 30.0 60.0 0.0
    vertex 21.358311347011618 60.0 9.35891173491645
  endloop
endfacet
facet normal -0.0 1.0 0.0
  outer loop
    vertex 21.358311347011618 60.0 9.35891173491645
    vertex 30.0 60.0 0.0
    vertex 19.681636063557395 60.0 7.9054750850815365
  endloop
endfacet
facet normal -0.0 1.0 0.0
  outer loop
    vertex 19.681636063557395 60.0 7.9054750850815365
    vertex 30.0 60.0 0.0
    vertex 17.685915019141138 60.0 6.935518583941551
  endloop
endfacet
facet normal -0.0 1.0 0.0
  outer loop
    vertex 17.685915019141138 60.0 6.935518583941551
    vertex 30.0 60.0 0.0
    vertex 15.507153304854851 60.0 6.515143164120282
  endloop
endfacet
facet normal -0.0 1.0 0.0
  outer loop
    vertex 30.0 60.0 30.0
    vertex 22.601678219773312 60.0 11.196779227677673
    vertex 23.327003284224688 60.0 13.293829930953168
  endloop
endfacet
facet normal -0.0 1.0 0.0
  outer loop
    vertex 30.0 60.0 30.0
    vertex 23.327003284224688 60.0 13.293829930953168
    vertex 23.484856835879718 60.0 15.507153304854848
  endloop
endfacet
facet normal -0.0 1.0 0.0
  outer loop
    vertex 30.0 60.0 30.0
    vertex 23.484856835879718 60.0 15.507153304854848
    vertex 23.06448141605845 60.0 17.685915019141135
  endloop
endfacet
facet normal -0.0 1.0 0.0
  outer loop
    vertex 30.0 60.0 30.0
    vertex 23.06448141605845 60.0 17.685915019141135
    vertex 22.09452491491847 60.0 19.68163606355739
  endloop
endfacet
facet normal -0.0 1.0 0.0
  outer loop
    vertex 30.0 60.0 30.0
    vertex 22.09452491491847 60.0 19.68163606355739
    vertex 20.64108826508355 60.0 21.358311347011618
  endloop
endfacet
facet normal -0.0 1.0 0.0
  outer loop
    vertex 30.0 60.0 30.0
    vertex 20.64108826508355 60.0 21.358311347011618
    vertex 18.80322077232233 60.0 22.601678219773312
  endloop
endfacet
facet normal -0.0 1.0 0.0
  outer loop
    vertex 30.0 60.0 30.0
    vertex 18.80322077232233 60.0 22.601678219773312
    vertex 16.706170069046838 60.0 23.327003284224688
  endloop
endfacet
facet normal -0.0 1.0 0.0
  outer loop
    vertex 30.0 60.0 30.0
    vertex 16.706170069046838 60.0 23.327003284224688
    vertex 14.49284669514515 60.0 23.48485683587972
  endloop
endfacet
facet normal -0.0 1.0 0.0
  outer loop
    vertex 30.0 60.0 30.0
    vertex 14.49284669514515 60.0 23.48485683587972
    vertex 0.0 60.0 30.0
  endloop
endfacet
facet normal 1.0 -0.0 -0.0
  outer loop
    vertex 30.0 60.0 0.0
    vertex 30.0 30.0 30.0
    vertex 30.0 30.0 0.0
  endloop
endfacet
facet normal 1.0 -0.0 -0.0
  outer loop
    vertex 30.0 30.0 30.0
    vertex 30.0 60.0 0.0
    vertex 30.0 60.0 30.0
  endloop
endfacet
facet normal 0.8574929257125443 0.5144957554275267 1.919367914440478e-18
  outer loop
    vertex 0.0 5.0 5.0
    vertex 3.0 0.0 15.0
    vertex 3.0 0.0 5.000000000000001
  endloop
endfacet
facet normal 0.8574929257125443 0.5144957554275267 1.919367914440478e-18
  outer loop
    vertex 3.0 0.0 15.0
    vertex 0.0 5.0 5.0
    vertex 0.0 5.0 15.0
  endloop
endfacet
facet normal 0.0 0.0 -1.0
  outer loop
    vertex 28.0 0.0 15.0
    vertex 0.0 5.0 15.0
    vertex 0.0 25.0 15.0
  endloop
endfacet
facet normal 0.0 0.0 -1.0
  outer loop
    vertex 0.0 5.0 15.0
    vertex 28.0 0.0 15.0
    vertex 3.0 0.0 15.0
  endloop
endfacet
facet normal -1.2083621668254174e-17 1.8271605345142405e-17 1.0
  outer loop
    vertex 3.0 0.0 5.000000000000001
    vertex 0.0 25.0 5.0
    vertex 0.0 5.0 5.0
  endloop
endfacet
facet normal -1.2083621668254174e-17 1.8271605345142405e-17 1.0
  outer loop
    vertex 0.0 25.0 5.0
    vertex 3.0 0.0 5.000000000000001
    vertex 28.0 0.0 5.000000000000001
  endloop
endfacet
facet normal -0.6660157693088523 -0.7459376616259147 -7.155721577400392e-18
  outer loop
    vertex 28.0 0.0 5.000000000000001
    vertex 0.0 25.0 15.0
    vertex 0.0 25.0 5.0
  endloop
endfacet
facet normal -0.6660157693088523 -0.7459376616259147 -7.155721577400392e-18
  outer loop
    vertex 0.0 25.0 15.0
    vertex 28.0 0.0 5.000000000000001
    vertex 28.0 0.0 15.0
  endloop
endfacet
facet normal 1.0 0.0 0.0
  outer loop
    vertex 35.0 6.789630476542918 12.80003811662857
    vertex 35.0 6.789630476542916 17.199961883371426
    vertex 35.0 6.499999999999998 15.0
  endloop
endfacet
facet normal 1.0 0.0 0.0
  outer loop
    vertex 35.0 6.789630476542916 17.199961883371426
    vertex 35.0 6.789630476542918 12.80003811662857
    vertex 35.0 7.638784067832268 19.25
  endloop
endfacet
facet normal 1.0 0.0 0.0
  outer loop
    vertex 35.0 7.638784067832268 19.25
    vertex 35.0 6.789630476542918 12.80003811662857
    vertex 35.0 7.638784067832271 10.749999999999996
  endloop
endfacet
facet normal 1.0 0.0 0.0
  outer loop
    vertex 35.0 7.638784067832268 19.25
    vertex 35.0 7.638784067832271 10.749999999999996
    vertex 35.0 8.98959235991434 21.010407640085653
  endloop
endfacet
facet normal 1.0 0.0 0.0
  outer loop
    vertex 35.0 8.98959235991434 21.010407640085653
    vertex 35.0 7.638784067832271 10.749999999999996
    vertex 35.0 8.989592359914344 8.989592359914345
  endloop
endfacet
facet normal 1.0 0.0 0.0
  outer loop
    vertex 35.0 8.98959235991434 21.010407640085653
    vertex 35.0 8.989592359914344 8.989592359914345
    vertex 35.0 10.749999999999995 22.361215932167724
  endloop
endfacet
facet normal 1.0 0.0 0.0
  outer loop
    vertex 35.0 10.749999999999995 22.361215932167724
    vertex 35.0 8.989592359914344 8.989592359914345
    vertex 35.0 10.75 7.638784067832271
  endloop
endfacet
facet normal 1.0 0.0 0.0
  outer loop
    vertex 35.0 10.749999999999995 22.361215932167724
    vertex 35.0 10.75 7.638784067832271
    vertex 35.0 12.800038116628565 23.21036952345708
  endloop
endfacet
facet normal 1.0 0.0 0.0
  outer loop
    vertex 35.0 12.800038116628565 23.21036952345708
    vertex 35.0 10.75 7.638784067832271
    vertex 35.0 12.800038116628574 6.7896304765429205
  endloop
endfacet
facet normal 1.0 0.0 0.0
  outer loop
    vertex 35.0 12.800038116628565 23.21036952345708
    vertex 35.0 12.800038116628574 6.7896304765429205
    vertex 35.0 14.999999999999995 23.500000000000004
  endloop
endfacet
facet normal 1.0 0.0 0.0
  outer loop
    vertex 35.0 14.999999999999995 23.500000000000004
    vertex 35.0 12.800038116628574 6.7896304765429205
    vertex 35.0 14.999999999999998 6.500000000000001
  endloop
endfacet
facet normal 1.0 0.0 0.0
  outer loop
    vertex 35.0 14.999999999999995 23.500000000000004
    vertex 35.0 14.999999999999998 6.500000000000001
    vertex 35.0 17.199961883371422 23.210369523457082
  endloop
endfacet
facet normal 1.0 0.0 0.0
  outer loop
    vertex 35.0 17.199961883371422 23.210369523457082
    vertex 35.0 14.999999999999998 6.500000000000001
    vertex 35.0 17.199961883371426 6.7896304765429205
  endloop
endfacet
facet normal 1.0 0.0 0.0
  outer loop
    vertex 35.0 17.199961883371422 23.210369523457082
    vertex 35.0 17.199961883371426 6.7896304765429205
    vertex 35.0 19.249999999999993 22.36121593216773
  endloop
endfacet
facet normal 1.0 0.0 0.0
  outer loop
    vertex 35.0 19.249999999999993 22.36121593216773
    vertex 35.0 17.199961883371426 6.7896304765429205
    vertex 35.0 19.25 7.638784067832272
  endloop
endfacet
facet normal 1.0 0.0 0.0
  outer loop
    vertex 35.0 19.249999999999993 22.36121593216773
    vertex 35.0 19.25 7.638784067832272
    vertex 35.0 21.010407640085653 21.010407640085656
  endloop
endfacet
facet normal 1.0 0.0 0.0
  outer loop
    vertex 35.0 21.010407640085653 21.010407640085656
    vertex 35.0 19.25 7.638784067832272
    vertex 35.0 21.010407640085653 8.989592359914347
  endloop
endfacet
facet normal 1.0 0.0 0.0
  outer loop
    vertex 35.0 21.010407640085653 21.010407640085656
    vertex 35.0 21.010407640085653 8.989592359914347
    vertex 35.0 22.361215932167724 10.750000000000002
  endloop
endfacet
facet normal 1.0 0.0 0.0
  outer loop
    vertex 35.0 21.010407640085653 21.010407640085656
    vertex 35.0 22.361215932167724 10.750000000000002
    vertex 35.0 22.361215932167724 19.250000000000004
  endloop
endfacet
facet normal 1.0 0.0 0.0
  outer loop
    vertex 35.0 22.361215932167724 19.250000000000004
    vertex 35.0 22.361215932167724 10.750000000000002
    vertex 35.0 23.21036952345708 12.800038116628574
  endloop
endfacet
facet normal 1.0 0.0 0.0
  outer loop
    vertex 35.0 22.361215932167724 19.250000000000004
    vertex 35.0 23.21036952345708 12.800038116628574
    vertex 35.0 23.210369523457075 17.199961883371433
  endloop
endfacet
facet normal 1.0 0.0 0.0
  outer loop
    vertex 35.0 23.210369523457075 17.199961883371433
    vertex 35.0 23.21036952345708 12.800038116628574
    vertex 35.0 23.499999999999996 15.0
  endloop
endfacet
facet normal -0.0 0.9238795325112868 -0.38268343236508945
  outer loop
    vertex 35.0 7.638784067832268 19.25
    vertex 60.0 6.789630476542916 17.199961883371426
    vertex 35.0 6.789630476542916 17.199961883371426
  endloop
endfacet
facet normal -0.0 0.9238795325112868 -0.38268343236508945
  outer loop
    vertex 60.0 6.789630476542916 17.199961883371426
    vertex 35.0 7.638784067832268 19.25
    vertex 60.0 7.638784067832268 19.25
  endloop
endfacet
facet normal -0.0 0.9914448613738105 -0.1305261922200513
  outer loop
    vertex 35.0 6.789630476542916 17.199961883371426
    vertex 60.0 6.499999999999998 15.0
    vertex 35.0 6.499999999999998 15.0
  endloop
endfacet
facet normal -0.0 0.9914448613738105 -0.1305261922200513
  outer loop
    vertex 60.0 6.499999999999998 15.0
    vertex 35.0 6.789630476542916 17.199961883371426
    vertex 60.0 6.789630476542916 17.199961883371426
  endloop
endfacet
facet normal 0.0 0.9914448613738105 0.13052619222005157
  outer loop
    vertex 35.0 6.499999999999998 15.0
    vertex 60.0 6.789630476542918 12.80003811662857
    vertex 35.0 6.789630476542918 12.80003811662857
  endloop
endfacet
facet normal 0.0 0.9914448613738105 0.13052619222005157
  outer loop
    vertex 60.0 6.789630476542918 12.80003811662857
    vertex 35.0 6.499999999999998 15.0
    vertex 60.0 6.499999999999998 15.0
  endloop
endfacet
facet normal 0.0 0.9238795325112867 0.38268343236509006
  outer loop
    vertex 35.0 6.789630476542918 12.80003811662857
    vertex 60.0 7.638784067832271 10.749999999999996
    vertex 35.0 7.638784067832271 10.749999999999996
  endloop
endfacet
facet normal 0.0 0.9238795325112867 0.38268343236509006
  outer loop
    vertex 60.0 7.638784067832271 10.749999999999996
    vertex 35.0 6.789630476542918 12.80003811662857
    vertex 60.0 6.789630476542918 12.80003811662857
  endloop
endfacet
facet normal 0.0 0.7933533402912349 0.6087614290087211
  outer loop
    vertex 35.0 7.638784067832271 10.749999999999996
    vertex 60.0 8.989592359914344 8.989592359914345
    vertex 35.0 8.989592359914344 8.989592359914345
  endloop
endfacet
facet normal 0.0 0.7933533402912349 0.6087614290087211
  outer loop
    vertex 60.0 8.989592359914344 8.989592359914345
    vertex 35.0 7.638784067832271 10.749999999999996
    vertex 60.0 7.638784067832271 10.749999999999996
  endloop
endfacet
facet normal 0.0 0.6087614290087204 0.7933533402912353
  outer loop
    vertex 60.0 8.989592359914344 8.989592359914345
    vertex 35.0 10.75 7.638784067832271
    vertex 35.0 8.989592359914344 8.989592359914345
  endloop
endfacet
facet normal 0.0 0.6087614290087204 0.7933533402912353
  outer loop
    vertex 35.0 10.75 7.638784067832271
    vertex 60.0 8.989592359914344 8.989592359914345
    vertex 60.0 10.75 7.638784067832271
  endloop
endfacet
facet normal 0.0 0.3826834323650889 0.9238795325112871
  outer loop
    vertex 60.0 10.75 7.638784067832271
    vertex 35.0 12.800038116628574 6.7896304765429205
    vertex 35.0 10.75 7.638784067832271
  endloop
endfacet
facet normal 0.0 0.3826834323650889 0.9238795325112871
  outer loop
    vertex 35.0 12.800038116628574 6.7896304765429205
    vertex 60.0 10.75 7.638784067832271
    vertex 60.0 12.800038116628574 6.7896304765429205
  endloop
endfacet
facet normal 0.0 0.1305261922200519 0.9914448613738104
  outer loop
    vertex 60.0 12.800038116628574 6.7896304765429205
    vertex 35.0 14.999999999999998 6.500000000000001
    vertex 35.0 12.800038116628574 6.7896304765429205
  endloop
endfacet
facet normal 0.0 0.1305261922200519 0.9914448613738104
  outer loop
    vertex 35.0 14.999999999999998 6.500000000000001
    vertex 60.0 12.800038116628574 6.7896304765429205
    vertex 60.0 14.999999999999998 6.500000000000001
  endloop
endfacet
facet normal -0.0 -0.13052619222005157 0.9914448613738105
  outer loop
    vertex 60.0 14.999999999999998 6.500000000000001
    vertex 35.0 17.199961883371426 6.7896304765429205
    vertex 35.0 14.999999999999998 6.500000000000001
  endloop
endfacet
facet normal -0.0 -0.13052619222005157 0.9914448613738105
  outer loop
    vertex 35.0 17.199961883371426 6.7896304765429205
    vertex 60.0 14.999999999999998 6.500000000000001
    vertex 60.0 17.199961883371426 6.7896304765429205
  endloop
endfacet
facet normal -0.0 -0.3826834323650899 0.9238795325112867
  outer loop
    vertex 60.0 17.199961883371426 6.7896304765429205
    vertex 35.0 19.25 7.638784067832272
    vertex 35.0 17.199961883371426 6.7896304765429205
  endloop
endfacet
facet normal -0.0 -0.3826834323650899 0.9238795325112867
  outer loop
    vertex 35.0 19.25 7.638784067832272
    vertex 60.0 17.199961883371426 6.7896304765429205
    vertex 60.0 19.25 7.638784067832272
  endloop
endfacet
facet normal -0.0 -0.6087614290087209 0.7933533402912352
  outer loop
    vertex 60.0 19.25 7.638784067832272
    vertex 35.0 21.010407640085653 8.989592359914347
    vertex 35.0 19.25 7.638784067832272
  endloop
endfacet
facet normal -0.0 -0.6087614290087209 0.7933533402912352
  outer loop
    vertex 35.0 21.010407640085653 8.989592359914347
    vertex 60.0 19.25 7.638784067832272
    vertex 60.0 21.010407640085653 8.989592359914347
  endloop
endfacet
facet normal -0.0 -0.7933533402912358 0.6087614290087201
  outer loop
    vertex 60.0 22.361215932167724 10.750000000000002
    vertex 35.0 21.010407640085653 8.989592359914347
    vertex 60.0 21.010407640085653 8.989592359914347
  endloop
endfacet
facet normal -0.0 -0.7933533402912358 0.6087614290087201
  outer loop
    vertex 35.0 21.010407640085653 8.989592359914347
    vertex 60.0 22.361215932167724 10.750000000000002
    vertex 35.0 22.361215932167724 10.750000000000002
  endloop
endfacet
facet normal -0.0 -0.9238795325112865 0.38268343236509084
  outer loop
    vertex 60.0 23.21036952345708 12.800038116628574
    vertex 35.0 22.361215932167724 10.750000000000002
    vertex 60.0 22.361215932167724 10.750000000000002
  endloop
endfacet
facet normal -0.0 -0.9238795325112865 0.38268343236509084
  outer loop
    vertex 35.0 22.361215932167724 10.750000000000002
    vertex 60.0 23.21036952345708 12.800038116628574
    vertex 35.0 23.21036952345708 12.800038116628574
  endloop
endfacet
facet normal -0.0 -0.9914448613738106 0.1305261922200505
  outer loop
    vertex 60.0 23.499999999999996 15.0
    vertex 35.0 23.21036952345708 12.800038116628574
    vertex 60.0 23.21036952345708 12.800038116628574
  endloop
endfacet
facet normal -0.0 -0.9914448613738106 0.1305261922200505
  outer loop
    vertex 35.0 23.21036952345708 12.800038116628574
    vertex 60.0 23.499999999999996 15.0
    vertex 35.0 23.499999999999996 15.0
  endloop
endfacet
facet normal -0.0 -0.9914448613738105 -0.1305261922200514
  outer loop
    vertex 60.0 23.210369523457075 17.199961883371433
    vertex 35.0 23.499999999999996 15.0
    vertex 60.0 23.499999999999996 15.0
  endloop
endfacet
facet normal -0.0 -0.9914448613738105 -0.1305261922200514
  outer loop
    vertex 35.0 23.499999999999996 15.0
    vertex 60.0 23.210369523457075 17.199961883371433
    vertex 35.0 23.210369523457075 17.199961883371433
  endloop
endfacet
facet normal -0.0 -0.9238795325112867 -0.3826834323650899
  outer loop
    vertex 60.0 22.361215932167724 19.250000000000004
    vertex 35.0 23.210369523457075 17.199961883371433
    vertex 60.0 23.210369523457075 17.199961883371433
  endloop
endfacet
facet normal -0.0 -0.9238795325112867 -0.3826834323650899
  outer loop
    vertex 35.0 23.210369523457075 17.199961883371433
    vertex 60.0 22.361215932167724 19.250000000000004
    vertex 35.0 22.361215932167724 19.250000000000004
  endloop
endfacet
facet normal -0.0 -0.7933533402912352 -0.6087614290087207
  outer loop
    vertex 60.0 21.010407640085653 21.010407640085656
    vertex 35.0 22.361215932167724 19.250000000000004
    vertex 60.0 22.361215932167724 19.250000000000004
  endloop
endfacet
facet normal -0.0 -0.7933533402912352 -0.6087614290087207
  outer loop
    vertex 35.0 22.361215932167724 19.250000000000004
    vertex 60.0 21.010407640085653 21.010407640085656
    vertex 35.0 21.010407640085653 21.010407640085656
  endloop
endfacet
facet normal -0.0 -0.6087614290087197 -0.7933533402912362
  outer loop
    vertex 60.0 21.010407640085653 21.010407640085656
    vertex 35.0 19.249999999999993 22.36121593216773
    vertex 35.0 21.010407640085653 21.010407640085656
  endloop
endfacet
facet normal -0.0 -0.6087614290087197 -0.7933533402912362
  outer loop
    vertex 35.0 19.249999999999993 22.36121593216773
    vertex 60.0 21.010407640085653 21.010407640085656
    vertex 60.0 19.249999999999993 22.36121593216773
  endloop
endfacet
facet normal -0.0 -0.3826834323650899 -0.9238795325112867
  outer loop
    vertex 60.0 19.249999999999993 22.36121593216773
    vertex 35.0 17.199961883371422 23.210369523457082
    vertex 35.0 19.249999999999993 22.36121593216773
  endloop
endfacet
facet normal -0.0 -0.3826834323650899 -0.9238795325112867
  outer loop
    vertex 35.0 17.199961883371422 23.210369523457082
    vertex 60.0 19.249999999999993 22.36121593216773
    vertex 60.0 17.199961883371422 23.210369523457082
  endloop
endfacet
facet normal -0.0 -0.13052619222005174 -0.9914448613738105
  outer loop
    vertex 60.0 17.199961883371422 23.210369523457082
    vertex 35.0 14.999999999999995 23.500000000000004
    vertex 35.0 17.199961883371422 23.210369523457082
  endloop
endfacet
facet normal -0.0 -0.13052619222005174 -0.9914448613738105
  outer loop
    vertex 35.0 14.999999999999995 23.500000000000004
    vertex 60.0 17.199961883371422 23.210369523457082
    vertex 60.0 14.999999999999995 23.500000000000004
  endloop
endfacet
facet normal -0.0 0.13052619222005282 -0.9914448613738104
  outer loop
    vertex 60.0 14.999999999999995 23.500000000000004
    vertex 35.0 12.800038116628565 23.21036952345708
    vertex 35.0 14.999999999999995 23.500000000000004
  endloop
endfacet
facet normal -0.0 0.13052619222005282 -0.9914448613738104
  outer loop
    vertex 35.0 12.800038116628565 23.21036952345708
    vertex 60.0 14.999999999999995 23.500000000000004
    vertex 60.0 12.800038116628565 23.21036952345708
  endloop
endfacet
facet normal -0.0 0.382683432365091 -0.9238795325112863
  outer loop
    vertex 60.0 12.800038116628565 23.21036952345708
    vertex 35.0 10.749999999999995 22.361215932167724
    vertex 35.0 12.800038116628565 23.21036952345708
  endloop
endfacet
facet normal -0.0 0.382683432365091 -0.9238795325112863
  outer loop
    vertex 35.0 10.749999999999995 22.361215932167724
    vertex 60.0 12.800038116628565 23.21036952345708
    vertex 60.0 10.749999999999995 22.361215932167724
  endloop
endfacet
facet normal -0.0 0.6087614290087201 -0.7933533402912358
  outer loop
    vertex 60.0 10.749999999999995 22.361215932167724
    vertex 35.0 8.98959235991434 21.010407640085653
    vertex 35.0 10.749999999999995 22.361215932167724
  endloop
endfacet
facet normal -0.0 0.6087614290087201 -0.7933533402912358
  outer loop
    vertex 35.0 8.98959235991434 21.010407640085653
    vertex 60.0 10.749999999999995 22.361215932167724
    vertex 60.0 8.98959235991434 21.010407640085653
  endloop
endfacet
facet normal -0.0 0.7933533402912358 -0.6087614290087201
  outer loop
    vertex 35.0 8.98959235991434 21.010407640085653
    vertex 60.0 7.638784067832268 19.25
    vertex 35.0 7.638784067832268 19.25
  endloop
endfacet
facet normal -0.0 0.7933533402912358 -0.6087614290087201
  outer loop
    vertex 60.0 7.638784067832268 19.25
    vertex 35.0 8.98959235991434 21.010407640085653
    vertex 60.0 8.98959235991434 21.010407640085653
  endloop
endfacet
facet normal 0.0 1.0 0.0
  outer loop
    vertex 13.293829930953168 35.0 6.672996715775312
    vertex 17.685915019141138 35.0 6.935518583941551
    vertex 15.507153304854851 35.0 6.515143164120282
  endloop
endfacet
facet normal 0.0 1.0 0.0
  outer loop
    vertex 17.685915019141138 35.0 6.935518583941551
    vertex 13.293829930953168 35.0 6.672996715775312
    vertex 11.196779227677675 35.0 7.398321780226687
  endloop
endfacet
facet normal 0.0 1.0 0.0
  outer loop
    vertex 17.685915019141138 35.0 6.935518583941551
    vertex 11.196779227677675 35.0 7.398321780226687
    vertex 19.681636063557395 35.0 7.9054750850815365
  endloop
endfacet
facet normal 0.0 1.0 0.0
  outer loop
    vertex 19.681636063557395 35.0 7.9054750850815365
    vertex 11.196779227677675 35.0 7.398321780226687
    vertex 9.35891173491645 35.0 8.641688652988384
  endloop
endfacet
facet normal 0.0 1.0 0.0
  outer loop
    vertex 19.681636063557395 35.0 7.9054750850815365
    vertex 9.35891173491645 35.0 8.641688652988384
    vertex 21.358311347011618 35.0 9.35891173491645
  endloop
endfacet
facet normal 0.0 1.0 0.0
  outer loop
    vertex 21.358311347011618 35.0 9.35891173491645
    vertex 9.35891173491645 35.0 8.641688652988384
    vertex 7.9054750850815365 35.0 10.318363936442607
  endloop
endfacet
facet normal 0.0 1.0 0.0
  outer loop
    vertex 21.358311347011618 35.0 9.35891173491645
    vertex 7.9054750850815365 35.0 10.318363936442607
    vertex 22.601678219773312 35.0 11.196779227677673
  endloop
endfacet
facet normal 0.0 1.0 0.0
  outer loop
    vertex 22.601678219773312 35.0 11.196779227677673
    vertex 7.9054750850815365 35.0 10.318363936442607
    vertex 6.935518583941551 35.0 12.314084980858862
  endloop
endfacet
facet normal 0.0 1.0 0.0
  outer loop
    vertex 22.601678219773312 35.0 11.196779227677673
    vertex 6.935518583941551 35.0 12.314084980858862
    vertex 23.327003284224688 35.0 13.293829930953168
  endloop
endfacet
facet normal 0.0 1.0 0.0
  outer loop
    vertex 23.327003284224688 35.0 13.293829930953168
    vertex 6.935518583941551 35.0 12.314084980858862
    vertex 6.515143164120282 35.0 14.49284669514515
  endloop
endfacet
facet normal 0.0 1.0 0.0
  outer loop
    vertex 23.327003284224688 35.0 13.293829930953168
    vertex 6.515143164120282 35.0 14.49284669514515
    vertex 23.484856835879718 35.0 15.507153304854848
  endloop
endfacet
facet normal 0.0 1.0 0.0
  outer loop
    vertex 23.484856835879718 35.0 15.507153304854848
    vertex 6.515143164120282 35.0 14.49284669514515
    vertex 6.672996715775314 35.0 16.706170069046834
  endloop
endfacet
facet normal 0.0 1.0 0.0
  outer loop
    vertex 23.484856835879718 35.0 15.507153304854848
    vertex 6.672996715775314 35.0 16.706170069046834
    vertex 23.06448141605845 35.0 17.685915019141135
  endloop
endfacet
facet normal 0.0 1.0 0.0
  outer loop
    vertex 23.06448141605845 35.0 17.685915019141135
    vertex 6.672996715775314 35.0 16.706170069046834
    vertex 7.398321780226686 35.0 18.803220772322327
  endloop
endfacet
facet normal 0.0 1.0 0.0
  outer loop
    vertex 23.06448141605845 35.0 17.685915019141135
    vertex 7.398321780226686 35.0 18.803220772322327
    vertex 22.09452491491847 35.0 19.68163606355739
  endloop
endfacet
facet normal 0.0 1.0 0.0
  outer loop
    vertex 22.09452491491847 35.0 19.68163606355739
    vertex 7.398321780226686 35.0 18.803220772322327
    vertex 8.641688652988384 35.0 20.64108826508355
  endloop
endfacet
facet normal 0.0 1.0 0.0
  outer loop
    vertex 22.09452491491847 35.0 19.68163606355739
    vertex 8.641688652988384 35.0 20.64108826508355
    vertex 20.64108826508355 35.0 21.358311347011618
  endloop
endfacet
facet normal 0.0 1.0 0.0
  outer loop
    vertex 20.64108826508355 35.0 21.358311347011618
    vertex 8.641688652988384 35.0 20.64108826508355
    vertex 10.318363936442612 35.0 22.09452491491847
  endloop
endfacet
facet normal 0.0 1.0 0.0
  outer loop
    vertex 20.64108826508355 35.0 21.358311347011618
    vertex 10.318363936442612 35.0 22.09452491491847
    vertex 18.80322077232233 35.0 22.601678219773312
  endloop
endfacet
facet normal 0.0 1.0 0.0
  outer loop
    vertex 18.80322077232233 35.0 22.601678219773312
    vertex 10.318363936442612 35.0 22.09452491491847
    vertex 12.314084980858867 35.0 23.06448141605845
  endloop
endfacet
facet normal 0.0 1.0 0.0
  outer loop
    vertex 18.80322077232233 35.0 22.601678219773312
    vertex 12.314084980858867 35.0 23.06448141605845
    vertex 16.706170069046838 35.0 23.327003284224688
  endloop
endfacet
facet normal 0.0 1.0 0.0
  outer loop
    vertex 16.706170069046838 35.0 23.327003284224688
    vertex 12.314084980858867 35.0 23.06448141605845
    vertex 14.49284669514515 35.0 23.48485683587972
  endloop
endfacet
facet normal -0.8282617509680038 -0.0 0.5603413886939073
  outer loop
    vertex 22.601678219773312 60.0 11.196779227677673
    vertex 21.358311347011618 35.0 9.35891173491645
    vertex 22.601678219773312 35.0 11.196779227677673
  endloop
endfacet
facet normal -0.8282617509680038 -0.0 0.5603413886939073
  outer loop
    vertex 21.358311347011618 35.0 9.35891173491645
    vertex 22.601678219773312 60.0 11.196779227677673
    vertex 21.358311347011618 60.0 9.35891173491645
  endloop
endfacet
facet normal -0.6550123930342217 -0.0 0.7556181343586073
  outer loop
    vertex 21.358311347011618 35.0 9.35891173491645
    vertex 19.681636063557395 60.0 7.9054750850815365
    vertex 19.681636063557395 35.0 7.9054750850815365
  endloop
endfacet
facet normal -0.6550123930342217 -0.0 0.7556181343586073
  outer loop
    vertex 19.681636063557395 60.0 7.9054750850815365
    vertex 21.358311347011618 35.0 9.35891173491645
    vertex 21.358311347011618 60.0 9.35891173491645
  endloop
endfacet
facet normal -0.4371250229743176 -0.0 0.8994007528847764
  outer loop
    vertex 19.681636063557395 35.0 7.9054750850815365
    vertex 17.685915019141138 60.0 6.935518583941551
    vertex 17.685915019141138 35.0 6.935518583941551
  endloop
endfacet
facet normal -0.4371250229743176 -0.0 0.8994007528847764
  outer loop
    vertex 17.685915019141138 60.0 6.935518583941551
    vertex 19.681636063557395 35.0 7.9054750850815365
    vertex 19.681636063557395 60.0 7.9054750850815365
  endloop
endfacet
facet normal -0.1894483049819688 -0.0 0.9818906964318682
  outer loop
    vertex 17.685915019141138 35.0 6.935518583941551
    vertex 15.507153304854851 60.0 6.515143164120282
    vertex 15.507153304854851 35.0 6.515143164120282
  endloop
endfacet
facet normal -0.1894483049819688 -0.0 0.9818906964318682
  outer loop
    vertex 15.507153304854851 60.0 6.515143164120282
    vertex 17.685915019141138 35.0 6.935518583941551
    vertex 17.685915019141138 60.0 6.935518583941551
  endloop
endfacet
facet normal 0.07113900191677199 0.0 0.9974664116682255
  outer loop
    vertex 15.507153304854851 35.0 6.515143164120282
    vertex 13.293829930953168 60.0 6.672996715775312
    vertex 13.293829930953168 35.0 6.672996715775312
  endloop
endfacet
facet normal 0.07113900191677199 0.0 0.9974664116682255
  outer loop
    vertex 13.293829930953168 60.0 6.672996715775312
    vertex 15.507153304854851 35.0 6.515143164120282
    vertex 15.507153304854851 60.0 6.515143164120282
  endloop
endfacet
facet normal 0.32687830339764673 0.0 0.9450664393405769
  outer loop
    vertex 13.293829930953168 35.0 6.672996715775312
    vertex 11.196779227677675 60.0 7.398321780226687
    vertex 11.196779227677675 35.0 7.398321780226687
  endloop
endfacet
facet normal 0.32687830339764673 0.0 0.9450664393405769
  outer loop
    vertex 11.196779227677675 60.0 7.398321780226687
    vertex 13.293829930953168 35.0 6.672996715775312
    vertex 13.293829930953168 60.0 6.672996715775312
  endloop
endfacet
facet normal 0.5603413886939075 0.0 0.8282617509680038
  outer loop
    vertex 11.196779227677675 35.0 7.398321780226687
    vertex 9.35891173491645 60.0 8.641688652988384
    vertex 9.35891173491645 35.0 8.641688652988384
  endloop
endfacet
facet normal 0.5603413886939075 0.0 0.8282617509680038
  outer loop
    vertex 9.35891173491645 60.0 8.641688652988384
    vertex 11.196779227677675 35.0 7.398321780226687
    vertex 11.196779227677675 60.0 7.398321780226687
  endloop
endfacet
facet normal 0.7556181343586073 0.0 0.6550123930342217
  outer loop
    vertex 9.35891173491645 60.0 8.641688652988384
    vertex 7.9054750850815365 35.0 10.318363936442607
    vertex 9.35891173491645 35.0 8.641688652988384
  endloop
endfacet
facet normal 0.7556181343586073 0.0 0.6550123930342217
  outer loop
    vertex 7.9054750850815365 35.0 10.318363936442607
    vertex 9.35891173491645 60.0 8.641688652988384
    vertex 7.9054750850815365 60.0 10.318363936442607
  endloop
endfacet
facet normal 0.8994007528847763 0.0 0.4371250229743179
  outer loop
    vertex 7.9054750850815365 60.0 10.318363936442607
    vertex 6.935518583941551 35.0 12.314084980858862
    vertex 7.9054750850815365 35.0 10.318363936442607
  endloop
endfacet
facet normal 0.8994007528847763 0.0 0.4371250229743179
  outer loop
    vertex 6.935518583941551 35.0 12.314084980858862
    vertex 7.9054750850815365 60.0 10.318363936442607
    vertex 6.935518583941551 60.0 12.314084980858862
  endloop
endfacet
facet normal 0.9818906964318682 0.0 0.18944830498196866
  outer loop
    vertex 6.935518583941551 60.0 12.314084980858862
    vertex 6.515143164120282 35.0 14.49284669514515
    vertex 6.935518583941551 35.0 12.314084980858862
  endloop
endfacet
facet normal 0.9818906964318682 0.0 0.18944830498196866
  outer loop
    vertex 6.515143164120282 35.0 14.49284669514515
    vertex 6.935518583941551 60.0 12.314084980858862
    vertex 6.515143164120282 60.0 14.49284669514515
  endloop
endfacet
facet normal 0.9974664116682253 -0.0 -0.0711390019167726
  outer loop
    vertex 6.515143164120282 60.0 14.49284669514515
    vertex 6.672996715775314 35.0 16.706170069046834
    vertex 6.515143164120282 35.0 14.49284669514515
  endloop
endfacet
facet normal 0.9974664116682253 -0.0 -0.0711390019167726
  outer loop
    vertex 6.672996715775314 35.0 16.706170069046834
    vertex 6.515143164120282 60.0 14.49284669514515
    vertex 6.672996715775314 60.0 16.706170069046834
  endloop
endfacet
facet normal 0.945066439340577 -0.0 -0.32687830339764573
  outer loop
    vertex 6.672996715775314 60.0 16.706170069046834
    vertex 7.398321780226686 35.0 18.803220772322327
    vertex 6.672996715775314 35.0 16.706170069046834
  endloop
endfacet
facet normal 0.945066439340577 -0.0 -0.32687830339764573
  outer loop
    vertex 7.398321780226686 35.0 18.803220772322327
    vertex 6.672996715775314 60.0 16.706170069046834
    vertex 7.398321780226686 60.0 18.803220772322327
  endloop
endfacet
facet normal 0.8282617509680036 -0.0 -0.5603413886939075
  outer loop
    vertex 7.398321780226686 60.0 18.803220772322327
    vertex 8.641688652988384 35.0 20.64108826508355
    vertex 7.398321780226686 35.0 18.803220772322327
  endloop
endfacet
facet normal 0.8282617509680036 -0.0 -0.5603413886939075
  outer loop
    vertex 8.641688652988384 35.0 20.64108826508355
    vertex 7.398321780226686 60.0 18.803220772322327
    vertex 8.641688652988384 60.0 20.64108826508355
  endloop
endfacet
facet normal 0.6550123930342212 -0.0 -0.7556181343586078
  outer loop
    vertex 10.318363936442612 60.0 22.09452491491847
    vertex 8.641688652988384 35.0 20.64108826508355
    vertex 8.641688652988384 60.0 20.64108826508355
  endloop
endfacet
facet normal 0.6550123930342212 -0.0 -0.7556181343586078
  outer loop
    vertex 8.641688652988384 35.0 20.64108826508355
    vertex 10.318363936442612 60.0 22.09452491491847
    vertex 10.318363936442612 35.0 22.09452491491847
  endloop
endfacet
facet normal 0.43712502297431705 -0.0 -0.8994007528847765
  outer loop
    vertex 12.314084980858867 60.0 23.06448141605845
    vertex 10.318363936442612 35.0 22.09452491491847
    vertex 10.318363936442612 60.0 22.09452491491847
  endloop
endfacet
facet normal 0.43712502297431705 -0.0 -0.8994007528847765
  outer loop
    vertex 10.318363936442612 35.0 22.09452491491847
    vertex 12.314084980858867 60.0 23.06448141605845
    vertex 12.314084980858867 35.0 23.06448141605845
  endloop
endfacet
facet normal 0.18944830498197027 -0.0 -0.981890696431868
  outer loop
    vertex 14.49284669514515 60.0 23.48485683587972
    vertex 12.314084980858867 35.0 23.06448141605845
    vertex 12.314084980858867 60.0 23.06448141605845
  endloop
endfacet
facet normal 0.18944830498197027 -0.0 -0.981890696431868
  outer loop
    vertex 12.314084980858867 35.0 23.06448141605845
    vertex 14.49284669514515 60.0 23.48485683587972
    vertex 14.49284669514515 35.0 23.48485683587972
  endloop
endfacet
facet normal -0.07113900191677369 -0.0 -0.9974664116682253
  outer loop
    vertex 16.706170069046838 60.0 23.327003284224688
    vertex 14.49284669514515 35.0 23.48485683587972
    vertex 14.49284669514515 60.0 23.48485683587972
  endloop
endfacet
facet normal -0.07113900191677369 -0.0 -0.9974664116682253
  outer loop
    vertex 14.49284669514515 35.0 23.48485683587972
    vertex 16.706170069046838 60.0 23.327003284224688
    vertex 16.706170069046838 35.0 23.327003284224688
  endloop
endfacet
facet normal -0.3268783033976469 -0.0 -0.9450664393405769
  outer loop
    vertex 18.80322077232233 60.0 22.601678219773312
    vertex 16.706170069046838 35.0 23.327003284224688
    vertex 16.706170069046838 60.0 23.327003284224688
  endloop
endfacet
facet normal -0.3268783033976469 -0.0 -0.9450664393405769
  outer loop
    vertex 16.706170069046838 35.0 23.327003284224688
    vertex 18.80322077232233 60.0 22.601678219773312
    vertex 18.80322077232233 35.0 22.601678219773312
  endloop
endfacet
facet normal -0.5603413886939079 -0.0 -0.8282617509680035
  outer loop
    vertex 20.64108826508355 60.0 21.358311347011618
    vertex 18.80322077232233 35.0 22.601678219773312
    vertex 18.80322077232233 60.0 22.601678219773312
  endloop
endfacet
facet normal -0.5603413886939079 -0.0 -0.8282617509680035
  outer loop
    vertex 18.80322077232233 35.0 22.601678219773312
    vertex 20.64108826508355 60.0 21.358311347011618
    vertex 20.64108826508355 35.0 21.358311347011618
  endloop
endfacet
facet normal -0.7556181343586071 -0.0 -0.6550123930342219
  outer loop
    vertex 20.64108826508355 60.0 21.358311347011618
    vertex 22.09452491491847 35.0 19.68163606355739
    vertex 20.64108826508355 35.0 21.358311347011618
  endloop
endfacet
facet normal -0.7556181343586071 -0.0 -0.6550123930342219
  outer loop
    vertex 22.09452491491847 35.0 19.68163606355739
    vertex 20.64108826508355 60.0 21.358311347011618
    vertex 22.09452491491847 60.0 19.68163606355739
  endloop
endfacet
facet normal -0.8994007528847769 -0.0 -0.4371250229743166
  outer loop
    vertex 22.09452491491847 60.0 19.68163606355739
    vertex 23.06448141605845 35.0 17.685915019141135
    vertex 22.09452491491847 35.0 19.68163606355739
  endloop
endfacet
facet normal -0.8994007528847769 -0.0 -0.4371250229743166
  outer loop
    vertex 23.06448141605845 35.0 17.685915019141135
    vertex 22.09452491491847 60.0 19.68163606355739
    vertex 23.06448141605845 60.0 17.685915019141135
  endloop
endfacet
facet normal -0.9818906964318682 -0.0 -0.1894483049819688
  outer loop
    vertex 23.06448141605845 60.0 17.685915019141135
    vertex 23.484856835879718 35.0 15.507153304854848
    vertex 23.06448141605845 35.0 17.685915019141135
  endloop
endfacet
facet normal -0.9818906964318682 -0.0 -0.1894483049819688
  outer loop
    vertex 23.484856835879718 35.0 15.507153304854848
    vertex 23.06448141605845 60.0 17.685915019141135
    vertex 23.484856835879718 60.0 15.507153304854848
  endloop
endfacet
facet normal -0.9974664116682254 -0.0 0.0711390019167727
  outer loop
    vertex 23.484856835879718 60.0 15.507153304854848
    vertex 23.327003284224688 35.0 13.293829930953168
    vertex 23.484856835879718 35.0 15.507153304854848
  endloop
endfacet
facet normal -0.9974664116682254 -0.0 0.0711390019167727
  outer loop
    vertex 23.327003284224688 35.0 13.293829930953168
    vertex 23.484856835879718 60.0 15.507153304854848
    vertex 23.327003284224688 60.0 13.293829930953168
  endloop
endfacet
facet normal -0.9450664393405769 -0.0 0.3268783033976465
  outer loop
    vertex 23.327003284224688 60.0 13.293829930953168
    vertex 22.601678219773312 35.0 11.196779227677673
    vertex 23.327003284224688 35.0 13.293829930953168
  endloop
endfacet
facet normal -0.9450664393405769 -0.0 0.3268783033976465
  outer loop
    vertex 22.601678219773312 35.0 11.196779227677673
    vertex 23.327003284224688 60.0 13.293829930953168
    vertex 22.601678219773312 60.0 11.196779227677673
  endloop
endfacet
facet normal 0.0 0.0 1.0
  outer loop
    vertex 2.442964258242116 11.635352413667222 20.000000000000004
    vertex 2.442964258242112 18.36464758633276 20.000000000000004
    vertex 2.0000000000000018 14.999999999999998 20.000000000000004
  endloop
endfacet
facet normal 0.0 0.0 1.0
  outer loop
    vertex 2.442964258242112 18.36464758633276 20.000000000000004
    vertex 2.442964258242116 11.635352413667222 20.000000000000004
    vertex 3.7416697508022945 21.49999999999999 20.000000000000004
  endloop
endfacet
facet normal 0.0 0.0 1.0
  outer loop
    vertex 3.7416697508022945 21.49999999999999 20.000000000000004
    vertex 2.442964258242116 11.635352413667222 20.000000000000004
    vertex 3.741669750802303 8.499999999999996 20.000000000000004
  endloop
endfacet
facet normal 0.0 0.0 1.0
  outer loop
    vertex 3.7416697508022945 21.49999999999999 20.000000000000004
    vertex 3.741669750802303 8.499999999999996 20.000000000000004
    vertex 5.807611844574881 24.192388155425117 20.000000000000004
  endloop
endfacet
facet normal 0.0 0.0 1.0
  outer loop
    vertex 5.807611844574881 24.192388155425117 20.000000000000004
    vertex 3.741669750802303 8.499999999999996 20.000000000000004
    vertex 5.80761184457489 5.807611844574878 20.000000000000004
  endloop
endfacet
facet normal 0.0 0.0 1.0
  outer loop
    vertex 5.807611844574881 24.192388155425117 20.000000000000004
    vertex 5.80761184457489 5.807611844574878 20.000000000000004
    vertex 8.499999999999996 26.258330249197698 20.000000000000004
  endloop
endfacet
facet normal 0.0 0.0 1.0
  outer loop
    vertex 8.499999999999996 26.258330249197698 20.000000000000004
    vertex 5.80761184457489 5.807611844574878 20.000000000000004
    vertex 8.500000000000004 3.741669750802297 20.000000000000004
  endloop
endfacet
facet normal 0.0 0.0 1.0
  outer loop
    vertex 8.499999999999996 26.258330249197698 20.000000000000004
    vertex 8.500000000000004 3.741669750802297 20.000000000000004
    vertex 11.635352413667222 27.557035741757886 20.000000000000004
  endloop
endfacet
facet normal 0.0 0.0 1.0
  outer loop
    vertex 11.635352413667222 27.557035741757886 20.000000000000004
    vertex 8.500000000000004 3.741669750802297 20.000000000000004
    vertex 11.635352413667237 2.442964258242112 20.000000000000004
  endloop
endfacet
facet normal 0.0 0.0 1.0
  outer loop
    vertex 11.635352413667222 27.557035741757886 20.000000000000004
    vertex 11.635352413667237 2.442964258242112 20.000000000000004
    vertex 15.0 28.0 20.000000000000004
  endloop
endfacet
facet normal 0.0 0.0 1.0
  outer loop
    vertex 15.0 28.0 20.000000000000004
    vertex 11.635352413667237 2.442964258242112 20.000000000000004
    vertex 15.000000000000004 2.0000000000000018 20.000000000000004
  endloop
endfacet
facet normal 0.0 0.0 1.0
  outer loop
    vertex 15.0 28.0 20.000000000000004
    vertex 15.000000000000004 2.0000000000000018 20.000000000000004
    vertex 18.36464758633277 27.557035741757886 20.000000000000004
  endloop
endfacet
facet normal 0.0 0.0 1.0
  outer loop
    vertex 18.36464758633277 27.557035741757886 20.000000000000004
    vertex 15.000000000000004 2.0000000000000018 20.000000000000004
    vertex 18.364647586332776 2.4429642582421147 20.000000000000004
  endloop
endfacet
facet normal 0.0 0.0 1.0
  outer loop
    vertex 18.36464758633277 27.557035741757886 20.000000000000004
    vertex 18.364647586332776 2.4429642582421147 20.000000000000004
    vertex 21.5 26.258330249197705 20.000000000000004
  endloop
endfacet
facet normal 0.0 0.0 1.0
  outer loop
    vertex 21.5 26.258330249197705 20.000000000000004
    vertex 18.364647586332776 2.4429642582421147 20.000000000000004
    vertex 21.500000000000007 3.7416697508023016 20.000000000000004
  endloop
endfacet
facet normal 0.0 0.0 1.0
  outer loop
    vertex 21.5 26.258330249197705 20.000000000000004
    vertex 21.500000000000007 3.7416697508023016 20.000000000000004
    vertex 24.192388155425117 24.192388155425117 20.000000000000004
  endloop
endfacet
facet normal 0.0 0.0 1.0
  outer loop
    vertex 24.192388155425117 24.192388155425117 20.000000000000004
    vertex 21.500000000000007 3.7416697508023016 20.000000000000004
    vertex 24.192388155425117 5.807611844574884 20.000000000000004
  endloop
endfacet
facet normal 0.0 0.0 1.0
  outer loop
    vertex 24.192388155425117 24.192388155425117 20.000000000000004
    vertex 24.192388155425117 5.807611844574884 20.000000000000004
    vertex 26.258330249197705 8.500000000000004 20.000000000000004
  endloop
endfacet
facet normal 0.0 0.0 1.0
  outer loop
    vertex 24.192388155425117 24.192388155425117 20.000000000000004
    vertex 26.258330249197705 8.500000000000004 20.000000000000004
    vertex 26.258330249197698 21.5 20.000000000000004
  endloop
endfacet
facet normal 0.0 0.0 1.0
  outer loop
    vertex 26.258330249197698 21.5 20.000000000000004
    vertex 26.258330249197705 8.500000000000004 20.000000000000004
    vertex 27.557035741757886 18.364647586332776 20.000000000000004
  endloop
endfacet
facet normal 0.0 0.0 1.0
  outer loop
    vertex 27.557035741757886 18.364647586332776 20.000000000000004
    vertex 26.258330249197705 8.500000000000004 20.000000000000004
    vertex 27.557035741757886 11.635352413667233 20.000000000000004
  endloop
endfacet
facet normal 0.0 0.0 1.0
  outer loop
    vertex 27.557035741757886 18.364647586332776 20.000000000000004
    vertex 27.557035741757886 11.635352413667233 20.000000000000004
    vertex 28.0 15.0 20.000000000000004
  endloop
endfacet
facet normal -0.7933533402912353 0.6087614290087204 -0.0
  outer loop
    vertex 26.258330249197705 8.500000000000004 60.0
    vertex 24.192388155425117 5.807611844574884 20.000000000000004
    vertex 24.192388155425117 5.807611844574884 60.0
  endloop
endfacet
facet normal -0.7933533402912353 0.6087614290087204 -0.0
  outer loop
    vertex 24.192388155425117 5.807611844574884 20.000000000000004
    vertex 26.258330249197705 8.500000000000004 60.0
    vertex 26.258330249197705 8.500000000000004 20.000000000000004
  endloop
endfacet
facet normal -0.923879532511287 0.38268343236508917 -0.0
  outer loop
    vertex 27.557035741757886 11.635352413667233 60.0
    vertex 26.258330249197705 8.500000000000004 20.000000000000004
    vertex 26.258330249197705 8.500000000000004 60.0
  endloop
endfacet
facet normal -0.923879532511287 0.38268343236508917 -0.0
  outer loop
    vertex 26.258330249197705 8.500000000000004 20.000000000000004
    vertex 27.557035741757886 11.635352413667233 60.0
    vertex 27.557035741757886 11.635352413667233 20.000000000000004
  endloop
endfacet
facet normal -0.9914448613738104 0.13052619222005182 -0.0
  outer loop
    vertex 28.0 15.0 60.0
    vertex 27.557035741757886 11.635352413667233 20.000000000000004
    vertex 27.557035741757886 11.635352413667233 60.0
  endloop
endfacet
facet normal -0.9914448613738104 0.13052619222005182 -0.0
  outer loop
    vertex 27.557035741757886 11.635352413667233 20.000000000000004
    vertex 28.0 15.0 60.0
    vertex 28.0 15.0 20.000000000000004
  endloop
endfacet
facet normal -0.9914448613738104 -0.1305261922200516 -0.0
  outer loop
    vertex 27.557035741757886 18.364647586332776 60.0
    vertex 28.0 15.0 20.000000000000004
    vertex 28.0 15.0 60.0
  endloop
endfacet
facet normal -0.9914448613738104 -0.1305261922200516 -0.0
  outer loop
    vertex 28.0 15.0 20.000000000000004
    vertex 27.557035741757886 18.364647586332776 60.0
    vertex 27.557035741757886 18.364647586332776 20.000000000000004
  endloop
endfacet
facet normal -0.9238795325112864 -0.38268343236509095 -0.0
  outer loop
    vertex 26.258330249197698 21.5 60.0
    vertex 27.557035741757886 18.364647586332776 20.000000000000004
    vertex 27.557035741757886 18.364647586332776 60.0
  endloop
endfacet
facet normal -0.9238795325112864 -0.38268343236509095 -0.0
  outer loop
    vertex 27.557035741757886 18.364647586332776 20.000000000000004
    vertex 26.258330249197698 21.5 60.0
    vertex 26.258330249197698 21.5 20.000000000000004
  endloop
endfacet
facet normal -0.7933533402912362 -0.6087614290087197 -0.0
  outer loop
    vertex 24.192388155425117 24.192388155425117 60.0
    vertex 26.258330249197698 21.5 20.000000000000004
    vertex 26.258330249197698 21.5 60.0
  endloop
endfacet
facet normal -0.7933533402912362 -0.6087614290087197 -0.0
  outer loop
    vertex 26.258330249197698 21.5 20.000000000000004
    vertex 24.192388155425117 24.192388155425117 60.0
    vertex 24.192388155425117 24.192388155425117 20.000000000000004
  endloop
endfacet
facet normal -0.6087614290087207 -0.793353340291235 -0.0
  outer loop
    vertex 24.192388155425117 24.192388155425117 60.0
    vertex 21.5 26.258330249197705 20.000000000000004
    vertex 24.192388155425117 24.192388155425117 20.000000000000004
  endloop
endfacet
facet normal -0.6087614290087207 -0.793353340291235 -0.0
  outer loop
    vertex 21.5 26.258330249197705 20.000000000000004
    vertex 24.192388155425117 24.192388155425117 60.0
    vertex 21.5 26.258330249197705 60.0
  endloop
endfacet
facet normal -0.38268343236508895 -0.9238795325112873 -0.0
  outer loop
    vertex 21.5 26.258330249197705 60.0
    vertex 18.36464758633277 27.557035741757886 20.000000000000004
    vertex 21.5 26.258330249197705 20.000000000000004
  endloop
endfacet
facet normal -0.38268343236508895 -0.9238795325112873 -0.0
  outer loop
    vertex 18.36464758633277 27.557035741757886 20.000000000000004
    vertex 21.5 26.258330249197705 60.0
    vertex 18.36464758633277 27.557035741757886 60.0
  endloop
endfacet
facet normal -0.13052619222005182 -0.9914448613738104 -0.0
  outer loop
    vertex 18.36464758633277 27.557035741757886 60.0
    vertex 15.0 28.0 20.000000000000004
    vertex 18.36464758633277 27.557035741757886 20.000000000000004
  endloop
endfacet
facet normal -0.13052619222005182 -0.9914448613738104 -0.0
  outer loop
    vertex 15.0 28.0 20.000000000000004
    vertex 18.36464758633277 27.557035741757886 60.0
    vertex 15.0 28.0 60.0
  endloop
endfacet
facet normal 0.1305261922200514 -0.9914448613738106 -0.0
  outer loop
    vertex 15.0 28.0 60.0
    vertex 11.635352413667222 27.557035741757886 20.000000000000004
    vertex 15.0 28.0 20.000000000000004
  endloop
endfacet
facet normal 0.1305261922200514 -0.9914448613738106 -0.0
  outer loop
    vertex 11.635352413667222 27.557035741757886 20.000000000000004
    vertex 15.0 28.0 60.0
    vertex 11.635352413667222 27.557035741757886 60.0
  endloop
endfacet
facet normal 0.38268343236509095 -0.9238795325112864 -0.0
  outer loop
    vertex 11.635352413667222 27.557035741757886 60.0
    vertex 8.499999999999996 26.258330249197698 20.000000000000004
    vertex 11.635352413667222 27.557035741757886 20.000000000000004
  endloop
endfacet
facet normal 0.38268343236509095 -0.9238795325112864 -0.0
  outer loop
    vertex 8.499999999999996 26.258330249197698 20.000000000000004
    vertex 11.635352413667222 27.557035741757886 60.0
    vertex 8.499999999999996 26.258330249197698 60.0
  endloop
endfacet
facet normal 0.6087614290087202 -0.7933533402912356 -0.0
  outer loop
    vertex 8.499999999999996 26.258330249197698 60.0
    vertex 5.807611844574881 24.192388155425117 20.000000000000004
    vertex 8.499999999999996 26.258330249197698 20.000000000000004
  endloop
endfacet
facet normal 0.6087614290087202 -0.7933533402912356 -0.0
  outer loop
    vertex 5.807611844574881 24.192388155425117 20.000000000000004
    vertex 8.499999999999996 26.258330249197698 60.0
    vertex 5.807611844574881 24.192388155425117 60.0
  endloop
endfacet
facet normal 0.7933533402912363 -0.6087614290087193 -0.0
  outer loop
    vertex 5.807611844574881 24.192388155425117 20.000000000000004
    vertex 3.7416697508022945 21.49999999999999 60.0
    vertex 3.7416697508022945 21.49999999999999 20.000000000000004
  endloop
endfacet
facet normal 0.7933533402912363 -0.6087614290087193 -0.0
  outer loop
    vertex 3.7416697508022945 21.49999999999999 60.0
    vertex 5.807611844574881 24.192388155425117 20.000000000000004
    vertex 5.807611844574881 24.192388155425117 60.0
  endloop
endfacet
facet normal 0.923879532511287 -0.3826834323650895 -0.0
  outer loop
    vertex 3.7416697508022945 21.49999999999999 20.000000000000004
    vertex 2.442964258242112 18.36464758633276 60.0
    vertex 2.442964258242112 18.36464758633276 20.000000000000004
  endloop
endfacet
facet normal 0.923879532511287 -0.3826834323650895 -0.0
  outer loop
    vertex 2.442964258242112 18.36464758633276 60.0
    vertex 3.7416697508022945 21.49999999999999 20.000000000000004
    vertex 3.7416697508022945 21.49999999999999 60.0
  endloop
endfacet
facet normal 0.9914448613738105 -0.1305261922200511 -0.0
  outer loop
    vertex 2.442964258242112 18.36464758633276 20.000000000000004
    vertex 2.0000000000000018 14.999999999999998 60.0
    vertex 2.0000000000000018 14.999999999999998 20.000000000000004
  endloop
endfacet
facet normal 0.9914448613738105 -0.1305261922200511 -0.0
  outer loop
    vertex 2.0000000000000018 14.999999999999998 60.0
    vertex 2.442964258242112 18.36464758633276 20.000000000000004
    vertex 2.442964258242112 18.36464758633276 60.0
  endloop
endfacet
facet normal 0.9914448613738104 0.1305261922200519 0.0
  outer loop
    vertex 2.0000000000000018 14.999999999999998 20.000000000000004
    vertex 2.442964258242116 11.635352413667222 60.0
    vertex 2.442964258242116 11.635352413667222 20.000000000000004
  endloop
endfacet
facet normal 0.9914448613738104 0.1305261922200519 0.0
  outer loop
    vertex 2.442964258242116 11.635352413667222 60.0
    vertex 2.0000000000000018 14.999999999999998 20.000000000000004
    vertex 2.0000000000000018 14.999999999999998 60.0
  endloop
endfacet
facet normal 0.9238795325112866 0.3826834323650906 0.0
  outer loop
    vertex 2.442964258242116 11.635352413667222 20.000000000000004
    vertex 3.741669750802303 8.499999999999996 60.0
    vertex 3.741669750802303 8.499999999999996 20.000000000000004
  endloop
endfacet
facet normal 0.9238795325112866 0.3826834323650906 0.0
  outer loop
    vertex 3.741669750802303 8.499999999999996 60.0
    vertex 2.442964258242116 11.635352413667222 20.000000000000004
    vertex 2.442964258242116 11.635352413667222 60.0
  endloop
endfacet
facet normal 0.7933533402912348 0.6087614290087211 0.0
  outer loop
    vertex 3.741669750802303 8.499999999999996 20.000000000000004
    vertex 5.80761184457489 5.807611844574878 60.0
    vertex 5.80761184457489 5.807611844574878 20.000000000000004
  endloop
endfacet
facet normal 0.7933533402912348 0.6087614290087211 0.0
  outer loop
    vertex 5.80761184457489 5.807611844574878 60.0
    vertex 3.741669750802303 8.499999999999996 20.000000000000004
    vertex 3.741669750802303 8.499999999999996 60.0
  endloop
endfacet
facet normal 0.6087614290087204 0.7933533402912353 0.0
  outer loop
    vertex 5.80761184457489 5.807611844574878 60.0
    vertex 8.500000000000004 3.741669750802297 20.000000000000004
    vertex 5.80761184457489 5.807611844574878 20.000000000000004
  endloop
endfacet
facet normal 0.6087614290087204 0.7933533402912353 0.0
  outer loop
    vertex 8.500000000000004 3.741669750802297 20.000000000000004
    vertex 5.80761184457489 5.807611844574878 60.0
    vertex 8.500000000000004 3.741669750802297 60.0
  endloop
endfacet
facet normal 0.3826834323650896 0.923879532511287 0.0
  outer loop
    vertex 8.500000000000004 3.741669750802297 60.0
    vertex 11.635352413667237 2.442964258242112 20.000000000000004
    vertex 8.500000000000004 3.741669750802297 20.000000000000004
  endloop
endfacet
facet normal 0.3826834323650896 0.923879532511287 0.0
  outer loop
    vertex 11.635352413667237 2.442964258242112 20.000000000000004
    vertex 8.500000000000004 3.741669750802297 60.0
    vertex 11.635352413667237 2.442964258242112 60.0
  endloop
endfacet
facet normal 0.130526192220051 0.9914448613738105 0.0
  outer loop
    vertex 11.635352413667237 2.442964258242112 60.0
    vertex 15.000000000000004 2.0000000000000018 20.000000000000004
    vertex 11.635352413667237 2.442964258242112 20.000000000000004
  endloop
endfacet
facet normal 0.130526192220051 0.9914448613738105 0.0
  outer loop
    vertex 15.000000000000004 2.0000000000000018 20.000000000000004
    vertex 11.635352413667237 2.442964258242112 60.0
    vertex 15.000000000000004 2.0000000000000018 60.0
  endloop
endfacet
facet normal -0.1305261922200517 0.9914448613738104 -0.0
  outer loop
    vertex 15.000000000000004 2.0000000000000018 60.0
    vertex 18.364647586332776 2.4429642582421147 20.000000000000004
    vertex 15.000000000000004 2.0000000000000018 20.000000000000004
  endloop
endfacet
facet normal -0.1305261922200517 0.9914448613738104 -0.0
  outer loop
    vertex 18.364647586332776 2.4429642582421147 20.000000000000004
    vertex 15.000000000000004 2.0000000000000018 60.0
    vertex 18.364647586332776 2.4429642582421147 60.0
  endloop
endfacet
facet normal -0.38268343236508995 0.9238795325112867 -0.0
  outer loop
    vertex 18.364647586332776 2.4429642582421147 60.0
    vertex 21.500000000000007 3.7416697508023016 20.000000000000004
    vertex 18.364647586332776 2.4429642582421147 20.000000000000004
  endloop
endfacet
facet normal -0.38268343236508995 0.9238795325112867 -0.0
  outer loop
    vertex 21.500000000000007 3.7416697508023016 20.000000000000004
    vertex 18.364647586332776 2.4429642582421147 60.0
    vertex 21.500000000000007 3.7416697508023016 60.0
  endloop
endfacet
facet normal -0.608761429008721 0.793353340291235 -0.0
  outer loop
    vertex 21.500000000000007 3.7416697508023016 60.0
    vertex 24.192388155425117 5.807611844574884 20.000000000000004
    vertex 21.500000000000007 3.7416697508023016 20.000000000000004
  endloop
endfacet
facet normal -0.608761429008721 0.793353340291235 -0.0
  outer loop
    vertex 24.192388155425117 5.807611844574884 20.000000000000004
    vertex 21.500000000000007 3.7416697508023016 60.0
    vertex 24.192388155425117 5.807611844574884 60.0
  endloop
endfacet
endsolid foot
